<?xml version="1.0" encoding="UTF-8" standalone="no"?>
<!-- Created with Inkscape (http://www.inkscape.org/) -->

<svg
   width="175.87102mm"
   height="36.981899mm"
   viewBox="0 0 175.87102 36.981899"
   version="1.1"
   id="svg1"
   inkscape:version="1.3.2 (091e20e, 2023-11-25, custom)"
   sodipodi:docname="LogotipoAbracePetsSVG.svg"
   xml:space="preserve"
   xmlns:inkscape="http://www.inkscape.org/namespaces/inkscape"
   xmlns:sodipodi="http://sodipodi.sourceforge.net/DTD/sodipodi-0.dtd"
   xmlns="http://www.w3.org/2000/svg"
   xmlns:svg="http://www.w3.org/2000/svg"><sodipodi:namedview
     id="namedview1"
     pagecolor="#505050"
     bordercolor="#eeeeee"
     borderopacity="1"
     inkscape:showpageshadow="0"
     inkscape:pageopacity="0"
     inkscape:pagecheckerboard="0"
     inkscape:deskcolor="#505050"
     inkscape:document-units="mm"
     inkscape:zoom="0.63118804"
     inkscape:cx="285.96866"
     inkscape:cy="152.09414"
     inkscape:window-width="1344"
     inkscape:window-height="720"
     inkscape:window-x="0"
     inkscape:window-y="0"
     inkscape:window-maximized="0"
     inkscape:current-layer="svg1" /><defs
     id="defs1"><linearGradient
       id="swatch1"
       inkscape:swatch="solid"><stop
         style="stop-color:#9d87dc;stop-opacity:1;"
         offset="0"
         id="stop1" /></linearGradient></defs><g
     id="g1"
     transform="translate(-20.348759,-127.00418)"
     style="stroke:#000000;stroke-opacity:0.13"><text
       xml:space="preserve"
       style="font-size:28.8403px;display:inline;mix-blend-mode:normal;fill:#ffffff;fill-opacity:1;stroke:#000000;stroke-width:5.87592;stroke-linecap:round;stroke-linejoin:round;stroke-miterlimit:3;stroke-dasharray:none;stroke-dashoffset:0;stroke-opacity:0.13;paint-order:markers stroke fill"
       x="21.527462"
       y="157.18279"
       id="text3"><tspan
         sodipodi:role="line"
         id="tspan3"
         style="font-style:normal;font-variant:normal;font-weight:normal;font-stretch:normal;font-size:28.8403px;font-family:'Kaushan Script';-inkscape-font-specification:'Kaushan Script';fill:#ffffff;fill-opacity:1;fill-rule:nonzero;stroke:#000000;stroke-width:5.87592;stroke-linecap:round;stroke-linejoin:round;stroke-miterlimit:3;stroke-dasharray:none;stroke-dashoffset:0;stroke-opacity:0.13;paint-order:markers stroke fill"
         x="21.527462"
         y="157.18279">AbracePets</tspan></text></g><g
     id="g2"
     transform="translate(-20.348759,-127.00418)"
     style="stroke:#000000;stroke-opacity:0.12941177;paint-order:stroke fill markers;stroke-width:2.86570208;stroke-dasharray:none"><path
       d="m 182.37949,128.28838 c -2.0334,0.4796 -3.62366,2.16522 -4.39215,4.65859 -0.359,1.16394 -0.51606,2.60836 -0.39826,3.66012 0.22998,2.07827 1.21162,3.7078 2.66726,4.43982 0.82458,0.4151 1.64074,0.48521 2.40923,0.21316 0.5385,-0.19072 1.26491,-0.61703 1.7389,-1.02091 1.25931,-1.06858 2.15681,-2.71494 2.49337,-4.57164 0.115,-0.63667 0.14304,-0.95921 0.14024,-1.66879 0,-1.35747 -0.19072,-2.34753 -0.61423,-3.2254 -0.64508,-1.33503 -1.66599,-2.21009 -2.88042,-2.47093 -0.33375,-0.0701 -0.88908,-0.0757 -1.16394,-0.014 z"
       id="path1"
       style="fill:#ffffff;stroke:#000000;stroke-width:2.8657;stroke-dasharray:none;stroke-opacity:0.129412;paint-order:stroke fill markers" /><path
       d="m 168.77718,128.77519 c -1.12468,0.19633 -2.18486,1.08261 -2.81591,2.35314 -0.34498,0.69276 -0.50765,1.35747 -0.58057,2.37557 -0.0337,0.44595 -0.0168,1.16114 0.0336,1.60989 0.28889,2.54666 1.47807,4.69225 3.27027,5.89266 0.359,0.2412 0.9536,0.53569 1.35747,0.67032 0.28608,0.0954 0.359,0.10658 0.67593,0.1206 0.4207,0.0168 0.72081,-0.0224 1.08822,-0.14023 0.56935,-0.18231 1.03493,-0.46839 1.47246,-0.90592 0.86665,-0.86665 1.40515,-2.17363 1.53136,-3.7106 0.0505,-0.63386 -0.006,-1.57624 -0.14304,-2.31387 -0.54971,-2.99261 -2.26899,-5.20831 -4.5464,-5.86461 -0.45436,-0.12902 -0.91994,-0.15987 -1.34344,-0.087 z"
       id="path2"
       style="fill:#ffffff;stroke:#000000;stroke-width:2.8657;stroke-dasharray:none;stroke-opacity:0.129412;paint-order:stroke fill markers;stroke-miterlimit:4" /><path
       d="m 190.88351,139.06037 c -1.87634,0.30851 -3.50867,1.60148 -4.52677,3.59 -0.46838,0.91713 -0.70398,1.66318 -0.88628,2.82432 -0.0645,0.4151 -0.0757,0.57216 -0.0757,1.04896 0,0.58337 0.0337,0.87226 0.15426,1.34344 0.32254,1.26492 1.08261,2.29424 2.02779,2.75141 0.51606,0.24961 0.98725,0.34217 1.51734,0.29449 1.28735,-0.11219 2.43447,-0.69276 3.45538,-1.74732 1.12468,-1.16395 1.89877,-2.77384 2.15119,-4.46507 0.0645,-0.4207 0.10939,-1.25089 0.0898,-1.59026 -0.10377,-1.74452 -1.04054,-3.27868 -2.34472,-3.83962 -0.50484,-0.21596 -1.06017,-0.29169 -1.56221,-0.21035 z"
       id="path3"
       style="fill:#ffffff;stroke:#000000;stroke-width:2.8657;stroke-dasharray:none;stroke-opacity:0.129412;paint-order:stroke fill markers" /><path
       d="m 159.58727,138.46136 c -1.22004,0.20474 -2.24656,1.05736 -2.62519,2.18485 -0.13463,0.39827 -0.24681,0.96762 -0.29449,1.48649 -0.17389,1.88194 0.48801,4.0079 1.7333,5.56731 0.93115,1.16394 2.13156,1.96889 3.47501,2.33069 1.13029,0.30291 2.14558,0.0168 3.00662,-0.84421 0.76849,-0.76848 1.15273,-1.89036 1.15273,-3.36843 0,-0.57496 -0.0281,-0.88909 -0.12901,-1.42198 -0.34218,-1.82866 -1.37991,-3.57878 -2.80189,-4.7259 -0.65349,-0.52728 -1.53416,-1.0125 -2.08949,-1.14992 -0.43754,-0.10939 -0.99006,-0.13183 -1.42759,-0.0589 z"
       id="path4"
       style="fill:#ffffff;stroke:#000000;stroke-width:2.8657;stroke-dasharray:none;stroke-opacity:0.129412;paint-order:stroke fill markers" /><path
       d="m 174.89236,146.05355 c -0.97604,0.10938 -1.94085,0.37021 -2.89164,0.78811 -1.45283,0.64228 -2.85517,1.71086 -3.76109,2.87201 -1.95487,2.50739 -3.31234,5.22233 -3.86486,7.72692 -0.0337,0.15425 -0.0926,0.38704 -0.12902,0.51886 -0.18791,0.68154 -0.15706,1.45564 0.087,2.13157 0.39265,1.08822 1.24248,1.93243 2.29423,2.28582 0.62825,0.21035 1.56783,0.20755 2.61398,-0.0112 0.68153,-0.14023 1.19199,-0.3029 2.63921,-0.8386 2.01377,-0.74885 2.5719,-0.89189 3.92656,-1.0181 0.60582,-0.0561 0.7152,-0.0589 1.1331,-0.0281 1.06859,0.0757 1.9128,0.30852 3.53391,0.97042 1.436,0.58618 2.23814,0.90311 2.44008,0.95921 2.01938,0.57215 4.02473,-0.13182 4.71188,-1.65477 0.3001,-0.67032 0.33376,-1.76134 0.0813,-2.79628 -0.24681,-1.00688 -0.97883,-2.64201 -1.68001,-3.74426 -1.9773,-3.1132 -3.38806,-4.8437 -5.02039,-6.1619 -1.53417,-1.23687 -2.82152,-1.82305 -4.40617,-1.99974 -0.44594,-0.0505 -1.25369,-0.0505 -1.70805,0 z"
       id="path5"
       style="fill:#ffffff;stroke:#000000;stroke-width:2.8657;stroke-dasharray:none;stroke-opacity:0.129412;paint-order:stroke fill markers" /></g></svg>
